<svg version="1.1" id="Layer_1" xmlns="http://www.w3.org/2000/svg" xmlns:xlink="http://www.w3.org/1999/xlink" x="0px" y="0px"
	 width="100%" viewBox="0 0 2000 2000" enable-background="new 0 0 2000 2000" xml:space="preserve">
<path fill="#FFFFFF" opacity="1.000000" stroke="none" 
	d="
M866.000000,2001.000000 
	C577.333313,2001.000000 289.166656,2001.000000 1.000000,2001.000000 
	C1.000000,1334.333374 1.000000,667.666687 1.000000,1.000000 
	C667.666687,1.000000 1334.333374,1.000000 2001.000000,1.000000 
	C2001.000000,667.666687 2001.000000,1334.333374 2001.000000,2001.000000 
	C1622.833374,2001.000000 1244.666626,2001.000000 866.000000,2001.000000 
M776.500000,1398.825439 
	C804.497803,1398.825439 832.495605,1398.822754 860.493408,1398.825806 
	C992.317627,1398.839844 1124.141968,1398.934692 1255.965698,1398.696655 
	C1264.996582,1398.680420 1274.505615,1397.534546 1282.943359,1394.530151 
	C1297.238770,1389.440063 1311.058716,1382.859131 1324.713379,1376.160400 
	C1347.922607,1364.774414 1366.026123,1346.948853 1381.025024,1326.515503 
	C1396.913574,1304.869751 1408.490723,1280.821167 1413.140381,1253.872070 
	C1416.431030,1234.799561 1415.005615,1215.688232 1414.426270,1196.587036 
	C1414.257080,1191.010864 1413.272461,1185.210693 1411.365479,1179.986084 
	C1406.887085,1167.715820 1401.962158,1155.579712 1396.598145,1143.668457 
	C1389.594971,1128.117188 1380.223633,1114.076416 1368.208862,1101.822876 
	C1356.749146,1090.135376 1344.712280,1079.245361 1330.578247,1070.789185 
	C1317.646729,1063.052368 1304.276611,1055.832153 1292.285034,1046.809204 
	C1282.780884,1039.657837 1275.606567,1029.731201 1272.439087,1017.719177 
	C1270.659424,1010.970459 1269.052734,1004.168457 1267.634888,997.335083 
	C1266.869385,993.645813 1266.004272,989.780151 1266.338013,986.098633 
	C1267.175781,976.859070 1269.419434,967.704956 1269.738647,958.469543 
	C1270.319702,941.658447 1270.295532,924.801392 1269.770630,907.987061 
	C1269.481812,898.733337 1268.152100,889.433716 1266.418823,880.320801 
	C1263.374023,864.312622 1257.668335,849.041504 1250.512329,834.495056 
	C1243.051636,819.329163 1235.349609,804.123108 1226.056885,790.055176 
	C1212.625000,769.721436 1194.852539,753.049683 1176.557983,737.037170 
	C1163.684814,725.769836 1149.149170,717.072876 1133.853271,709.663086 
	C1122.832764,704.324463 1111.726807,698.987366 1100.222046,694.870483 
	C1088.106079,690.534729 1075.645142,686.676697 1063.011719,684.414429 
	C1051.151611,682.290588 1038.879517,682.083069 1026.771118,681.810181 
	C1000.507874,681.218201 974.498474,681.832886 949.009766,690.415527 
	C931.121704,696.438782 914.079773,704.036987 897.826721,713.219360 
	C884.158813,720.941284 871.226013,730.112488 858.605164,739.499084 
	C844.955627,749.650757 833.172852,761.972168 822.793701,775.447876 
	C813.468689,787.554688 805.427307,800.699341 795.586792,812.344421 
	C787.690491,821.688660 777.885986,829.393250 765.469238,832.568176 
	C761.119934,833.680359 756.722595,834.603821 752.368774,835.699280 
	C742.819702,838.101868 733.611694,839.565308 723.540649,836.466309 
	C710.912598,832.580444 697.795288,829.326599 684.683472,828.205200 
	C667.037476,826.695984 649.193237,827.256104 631.438049,827.406372 
	C625.179810,827.459290 618.704651,828.138306 612.724670,829.886414 
	C595.043335,835.055359 578.413635,842.782410 562.298157,851.744568 
	C541.406555,863.362915 524.290527,879.381409 510.291840,898.292358 
	C501.395966,910.309814 494.621155,924.033936 487.960297,937.518799 
	C483.895508,945.747925 480.970306,954.791626 479.093384,963.794739 
	C475.714844,980.000610 473.136292,996.400818 470.927490,1012.814575 
	C469.071930,1026.603638 462.009308,1037.840942 452.711945,1046.886841 
	C444.674225,1054.707275 434.330627,1060.461548 424.338593,1065.902954 
	C406.419556,1075.661011 390.931122,1088.280151 377.300415,1103.244019 
	C371.617218,1109.483032 366.040558,1116.026123 361.651672,1123.188354 
	C355.264648,1133.611572 349.817230,1144.629761 344.295288,1155.559082 
	C337.736725,1168.540161 333.067627,1182.353394 332.289856,1196.828857 
	C330.811981,1224.335205 328.669159,1252.076782 340.516632,1278.308838 
	C345.070892,1288.392700 349.220612,1298.681030 354.236298,1308.528931 
	C359.439789,1318.745850 365.852844,1328.172485 373.659332,1336.782959 
	C384.212860,1348.423340 395.203186,1359.649902 408.496429,1367.884033 
	C421.007172,1375.633789 434.466095,1381.914062 447.753967,1388.331055 
	C462.144989,1395.280762 477.774292,1398.531250 493.519684,1398.596069 
	C587.511841,1398.982910 681.506287,1398.810059 776.500000,1398.825439 
M1657.322144,1242.061890 
	C1661.973022,1229.717896 1666.452148,1217.338135 1668.033936,1204.113403 
	C1669.421021,1192.515991 1671.817505,1180.978027 1672.325562,1169.350830 
	C1673.135864,1150.802612 1673.028564,1132.206299 1668.084961,1114.000610 
	C1665.414917,1104.167847 1664.532715,1093.679321 1660.696411,1084.371704 
	C1654.155762,1068.502319 1646.811401,1052.815430 1638.209106,1037.976929 
	C1622.229614,1010.413635 1600.583984,987.640259 1574.365356,969.547485 
	C1562.672607,961.478577 1550.011597,954.819580 1537.900146,947.342285 
	C1536.535889,946.500000 1534.937378,944.400208 1535.071899,943.044678 
	C1535.718384,936.525696 1537.492065,930.091675 1537.830200,923.573730 
	C1539.283691,895.553406 1540.013062,867.591003 1534.590210,839.751526 
	C1530.831177,820.453369 1525.996582,801.599670 1518.756836,783.291809 
	C1511.678589,765.392456 1503.293213,748.156067 1492.919556,732.016724 
	C1475.660400,705.165161 1454.800537,681.406067 1430.198730,660.905579 
	C1413.672974,647.134766 1396.009277,635.107300 1377.002808,625.202087 
	C1357.683960,615.134094 1337.579956,606.985168 1316.401245,601.275330 
	C1299.131470,596.619324 1281.733398,592.782288 1264.001953,591.600342 
	C1242.120117,590.141724 1220.116333,589.277771 1198.269165,592.965698 
	C1188.194214,594.666321 1177.861084,595.318970 1168.041748,597.935791 
	C1154.046021,601.665588 1140.372803,606.640930 1126.651245,611.345093 
	C1121.715088,613.037476 1117.037964,615.485168 1111.748779,617.804688 
	C1112.904907,618.905518 1113.284790,619.557068 1113.821899,619.735657 
	C1122.375000,622.579102 1131.236328,624.705505 1139.451050,628.308838 
	C1152.566895,634.061951 1165.438843,640.444580 1178.085693,647.177734 
	C1200.357422,659.035156 1220.745605,673.764282 1239.041138,691.059570 
	C1251.654297,702.983154 1263.489746,715.820251 1274.809692,728.990784 
	C1282.958740,738.471924 1290.399780,748.744019 1296.863159,759.444580 
	C1304.754883,772.509827 1311.830200,786.143677 1318.249512,799.999146 
	C1323.534302,811.405396 1327.761841,823.357910 1331.679565,835.323242 
	C1334.776733,844.782288 1337.028076,854.558899 1339.044556,864.320557 
	C1341.436401,875.899048 1344.331177,887.552795 1344.938965,899.281128 
	C1345.998047,919.717651 1345.870728,940.244812 1345.430054,960.716614 
	C1345.233521,969.849304 1342.949219,978.926270 1341.943481,988.065002 
	C1341.805908,989.314819 1343.282349,991.304138 1344.544067,992.049622 
	C1350.189453,995.385132 1356.072754,998.314575 1361.789185,1001.534302 
	C1392.095825,1018.604492 1417.673218,1041.071289 1439.017578,1068.544312 
	C1459.770508,1095.256226 1474.070312,1125.164185 1483.300049,1157.480957 
	C1486.618896,1169.101562 1489.118042,1181.206665 1489.958984,1193.232788 
	C1491.747803,1218.811768 1492.505493,1244.400024 1486.542847,1269.822266 
	C1483.692871,1281.973877 1480.803711,1293.994507 1476.736084,1305.815918 
	C1467.835571,1331.681885 1454.728394,1355.150757 1437.976807,1376.668579 
	C1434.083740,1381.669434 1430.082764,1386.586426 1425.424683,1392.428223 
	C1428.256226,1392.428223 1429.891602,1392.505493 1431.517578,1392.415894 
	C1444.565186,1391.697266 1457.666870,1393.729004 1470.697998,1390.430176 
	C1482.659912,1387.402100 1495.195312,1386.478882 1506.981934,1382.964111 
	C1518.923340,1379.402954 1530.656982,1374.592285 1541.784546,1368.953125 
	C1582.432007,1348.355347 1615.444946,1319.094727 1638.721558,1279.662109 
	C1645.677856,1267.877441 1650.932739,1255.088379 1657.322144,1242.061890 
z"/>
<path fill="#6C41E7" opacity="1.000000" stroke="none" 
	d="
M776.000000,1398.825317 
	C681.506287,1398.810059 587.511841,1398.982910 493.519684,1398.596069 
	C477.774292,1398.531250 462.144989,1395.280762 447.753967,1388.331055 
	C434.466095,1381.914062 421.007172,1375.633789 408.496429,1367.884033 
	C395.203186,1359.649902 384.212860,1348.423340 373.659332,1336.782959 
	C365.852844,1328.172485 359.439789,1318.745850 354.236298,1308.528931 
	C349.220612,1298.681030 345.070892,1288.392700 340.516632,1278.308838 
	C328.669159,1252.076782 330.811981,1224.335205 332.289856,1196.828857 
	C333.067627,1182.353394 337.736725,1168.540161 344.295288,1155.559082 
	C349.817230,1144.629761 355.264648,1133.611572 361.651672,1123.188354 
	C366.040558,1116.026123 371.617218,1109.483032 377.300415,1103.244019 
	C390.931122,1088.280151 406.419556,1075.661011 424.338593,1065.902954 
	C434.330627,1060.461548 444.674225,1054.707275 452.711945,1046.886841 
	C462.009308,1037.840942 469.071930,1026.603638 470.927490,1012.814575 
	C473.136292,996.400818 475.714844,980.000610 479.093384,963.794739 
	C480.970306,954.791626 483.895508,945.747925 487.960297,937.518799 
	C494.621155,924.033936 501.395966,910.309814 510.291840,898.292358 
	C524.290527,879.381409 541.406555,863.362915 562.298157,851.744568 
	C578.413635,842.782410 595.043335,835.055359 612.724670,829.886414 
	C618.704651,828.138306 625.179810,827.459290 631.438049,827.406372 
	C649.193237,827.256104 667.037476,826.695984 684.683472,828.205200 
	C697.795288,829.326599 710.912598,832.580444 723.540649,836.466309 
	C733.611694,839.565308 742.819702,838.101868 752.368774,835.699280 
	C756.722595,834.603821 761.119934,833.680359 765.469238,832.568176 
	C777.885986,829.393250 787.690491,821.688660 795.586792,812.344421 
	C805.427307,800.699341 813.468689,787.554688 822.793701,775.447876 
	C833.172852,761.972168 844.955627,749.650757 858.605164,739.499084 
	C871.226013,730.112488 884.158813,720.941284 897.826721,713.219360 
	C914.079773,704.036987 931.121704,696.438782 949.009766,690.415527 
	C974.498474,681.832886 1000.507874,681.218201 1026.771118,681.810181 
	C1038.879517,682.083069 1051.151611,682.290588 1063.011719,684.414429 
	C1075.645142,686.676697 1088.106079,690.534729 1100.222046,694.870483 
	C1111.726807,698.987366 1122.832764,704.324463 1133.853271,709.663086 
	C1149.149170,717.072876 1163.684814,725.769836 1176.557983,737.037170 
	C1194.852539,753.049683 1212.625000,769.721436 1226.056885,790.055176 
	C1235.349609,804.123108 1243.051636,819.329163 1250.512329,834.495056 
	C1257.668335,849.041504 1263.374023,864.312622 1266.418823,880.320801 
	C1268.152100,889.433716 1269.481812,898.733337 1269.770630,907.987061 
	C1270.295532,924.801392 1270.319702,941.658447 1269.738647,958.469543 
	C1269.419434,967.704956 1267.175781,976.859070 1266.338013,986.098633 
	C1266.004272,989.780151 1266.869385,993.645813 1267.634888,997.335083 
	C1269.052734,1004.168457 1270.659424,1010.970459 1272.439087,1017.719177 
	C1275.606567,1029.731201 1282.780884,1039.657837 1292.285034,1046.809204 
	C1304.276611,1055.832153 1317.646729,1063.052368 1330.578247,1070.789185 
	C1344.712280,1079.245361 1356.749146,1090.135376 1368.208862,1101.822876 
	C1380.223633,1114.076416 1389.594971,1128.117188 1396.598145,1143.668457 
	C1401.962158,1155.579712 1406.887085,1167.715820 1411.365479,1179.986084 
	C1413.272461,1185.210693 1414.257080,1191.010864 1414.426270,1196.587036 
	C1415.005615,1215.688232 1416.431030,1234.799561 1413.140381,1253.872070 
	C1408.490723,1280.821167 1396.913574,1304.869751 1381.025024,1326.515503 
	C1366.026123,1346.948853 1347.922607,1364.774414 1324.713379,1376.160400 
	C1311.058716,1382.859131 1297.238770,1389.440063 1282.943359,1394.530151 
	C1274.505615,1397.534546 1264.996582,1398.680420 1255.965698,1398.696655 
	C1124.141968,1398.934692 992.317627,1398.839844 860.493408,1398.825806 
	C832.495605,1398.822754 804.497803,1398.825439 776.000000,1398.825317 
z"/>
<path fill="#010101" opacity="1.000000" stroke="none" 
	d="
M1657.144775,1242.410645 
	C1650.932739,1255.088379 1645.677856,1267.877441 1638.721558,1279.662109 
	C1615.444946,1319.094727 1582.432007,1348.355347 1541.784546,1368.953125 
	C1530.656982,1374.592285 1518.923340,1379.402954 1506.981934,1382.964111 
	C1495.195312,1386.478882 1482.659912,1387.402100 1470.697998,1390.430176 
	C1457.666870,1393.729004 1444.565186,1391.697266 1431.517578,1392.415894 
	C1429.891602,1392.505493 1428.256226,1392.428223 1425.424683,1392.428223 
	C1430.082764,1386.586426 1434.083740,1381.669434 1437.976807,1376.668579 
	C1454.728394,1355.150757 1467.835571,1331.681885 1476.736084,1305.815918 
	C1480.803711,1293.994507 1483.692871,1281.973877 1486.542847,1269.822266 
	C1492.505493,1244.400024 1491.747803,1218.811768 1489.958984,1193.232788 
	C1489.118042,1181.206665 1486.618896,1169.101562 1483.300049,1157.480957 
	C1474.070312,1125.164185 1459.770508,1095.256226 1439.017578,1068.544312 
	C1417.673218,1041.071289 1392.095825,1018.604492 1361.789185,1001.534302 
	C1356.072754,998.314575 1350.189453,995.385132 1344.544067,992.049622 
	C1343.282349,991.304138 1341.805908,989.314819 1341.943481,988.065002 
	C1342.949219,978.926270 1345.233521,969.849304 1345.430054,960.716614 
	C1345.870728,940.244812 1345.998047,919.717651 1344.938965,899.281128 
	C1344.331177,887.552795 1341.436401,875.899048 1339.044556,864.320557 
	C1337.028076,854.558899 1334.776733,844.782288 1331.679565,835.323242 
	C1327.761841,823.357910 1323.534302,811.405396 1318.249512,799.999146 
	C1311.830200,786.143677 1304.754883,772.509827 1296.863159,759.444580 
	C1290.399780,748.744019 1282.958740,738.471924 1274.809692,728.990784 
	C1263.489746,715.820251 1251.654297,702.983154 1239.041138,691.059570 
	C1220.745605,673.764282 1200.357422,659.035156 1178.085693,647.177734 
	C1165.438843,640.444580 1152.566895,634.061951 1139.451050,628.308838 
	C1131.236328,624.705505 1122.375000,622.579102 1113.821899,619.735657 
	C1113.284790,619.557068 1112.904907,618.905518 1111.748779,617.804688 
	C1117.037964,615.485168 1121.715088,613.037476 1126.651245,611.345093 
	C1140.372803,606.640930 1154.046021,601.665588 1168.041748,597.935791 
	C1177.861084,595.318970 1188.194214,594.666321 1198.269165,592.965698 
	C1220.116333,589.277771 1242.120117,590.141724 1264.001953,591.600342 
	C1281.733398,592.782288 1299.131470,596.619324 1316.401245,601.275330 
	C1337.579956,606.985168 1357.683960,615.134094 1377.002808,625.202087 
	C1396.009277,635.107300 1413.672974,647.134766 1430.198730,660.905579 
	C1454.800537,681.406067 1475.660400,705.165161 1492.919556,732.016724 
	C1503.293213,748.156067 1511.678589,765.392456 1518.756836,783.291809 
	C1525.996582,801.599670 1530.831177,820.453369 1534.590210,839.751526 
	C1540.013062,867.591003 1539.283691,895.553406 1537.830200,923.573730 
	C1537.492065,930.091675 1535.718384,936.525696 1535.071899,943.044678 
	C1534.937378,944.400208 1536.535889,946.500000 1537.900146,947.342285 
	C1550.011597,954.819580 1562.672607,961.478577 1574.365356,969.547485 
	C1600.583984,987.640259 1622.229614,1010.413635 1638.209106,1037.976929 
	C1646.811401,1052.815430 1654.155762,1068.502319 1660.696411,1084.371704 
	C1664.532715,1093.679321 1665.414917,1104.167847 1668.084961,1114.000610 
	C1673.028564,1132.206299 1673.135864,1150.802612 1672.325562,1169.350830 
	C1671.817505,1180.978027 1669.421021,1192.515991 1668.033936,1204.113403 
	C1666.452148,1217.338135 1661.973022,1229.717896 1657.144775,1242.410645 
z"/>
</svg>